# xmcd
#
# Track frame offsets: 
#        150
#        20188
#        38625
#        67372
#        83464
#        110339
#        122839
#        142137
#        159792
#        178470
#        194010
#        216930
#        232017
#        250577
#
# Disc length: 3590 seconds
#
# Revision: 0
# Processed by: cddbd v1.5.1PL2 Copyright (c) Steve Scherf et al.
# Submitted via: ExactAudioCopy v0.95a5
#
DISCID=d00e040e
DTITLE=Little Charlie and the Nightcats - That's Big
DYEAR=2002
DGENRE=Blues
TTITLE0=Real Love
TTITLE1=Weekend Off
TTITLE2=Desperate Man
TTITLE3=Livin' Good
TTITLE4=That's Big
TTITLE5=Bluto's Back
TTITLE6=I'll Never Cross Your Mind
TTITLE7=I Know She Used to Be Your Woman
TTITLE8=Money Must Think I'm Dead [#2]
TTITLE9=Coastin' Hank
TTITLE10=It Better Get Better
TTITLE11=Bayview Jump
TTITLE12=Steady Rollin' Man
TTITLE13=Go on If You're Goin'
EXTD=
EXTT0=
EXTT1=
EXTT2=
EXTT3=
EXTT4=
EXTT5=
EXTT6=
EXTT7=
EXTT8=
EXTT9=
EXTT10=
EXTT11=
EXTT12=
EXTT13=
PLAYORDER=
